<svg xmlns="http://www.w3.org/2000/svg" xmlns:xlink="http://www.w3.org/1999/xlink" width="206.047" height="134.303" viewBox="0 0 206.047 134.303">
  <defs>
    <clipPath id="clip-path">
      <rect id="Rectangle_19" data-name="Rectangle 19" width="120.387" height="79.655" fill="#fff"/>
    </clipPath>
  </defs>
  <g id="bg-right-hiring" transform="translate(0 -0.627)">
    <g id="Group_2" data-name="Group 2" transform="translate(0 55.275)" clip-path="url(#clip-path)">
      <path id="Path_2713" data-name="Path 2713" d="M49.8,68.761H35.19a.9.9,0,1,1,0-1.807H49.8a.9.9,0,1,1,0,1.807Z" transform="translate(-3.251 -61.565)" fill="#e6e7e8"/>
      <path id="Path_2714" data-name="Path 2714" d="M61.194,72.14h-26a.9.9,0,1,1,0-1.807h26a.9.9,0,1,1,0,1.807Z" transform="translate(-3.251 -61.885)" fill="#e6e7e8"/>
      <path id="Path_2715" data-name="Path 2715" d="M61.194,75.488h-26a.9.9,0,1,1,0-1.807h26a.9.9,0,1,1,0,1.807Z" transform="translate(-3.251 -62.203)" fill="#e6e7e8"/>
      <path id="Path_2716" data-name="Path 2716" d="M65.715,91.671v-.433c-5.026,0-9.415-4.083-10.582-9.77l1.894.484a13.073,13.073,0,0,1-2.415-3.488,13.046,13.046,0,0,1-1.707,3.88L54.7,81.5C55.887,87.418,60.465,91.671,65.715,91.671Z" transform="translate(-5.017 -62.656)" fill="#3f3d56"/>
      <path id="Path_2717" data-name="Path 2717" d="M63.588,74.657a.869.869,0,0,1-.871.866H51.4a.866.866,0,1,1,0-1.732H62.717A.869.869,0,0,1,63.588,74.657Z" transform="translate(-4.791 -62.213)" fill="#2cb0dd"/>
      <path id="Path_2718" data-name="Path 2718" d="M8.125,127.282a3.538,3.538,0,0,0-.819-1.469l-1.277-5.787-2.783.678,1.595,5.8a3.489,3.489,0,0,0,.088,1.673c.394,1.363,1.428,2.268,2.31,2.022s1.278-1.551.885-2.915Z" transform="translate(-0.308 -66.598)" fill="#ffb6b6"/>
      <path id="Path_2719" data-name="Path 2719" d="M7.432,86.1a6.718,6.718,0,0,0-4.747,1.845c-2,2.424-3.36,11.922-2.336,12.562L3.123,120.1l3.956-.541-1.015-23.5L7.432,86.1Z" transform="translate(0 -63.381)" fill="#2cb0dd"/>
      <path id="Path_2720" data-name="Path 2720" d="M28.071,122.585l-.72,23.909H17.009l-.418-9.216-1.838,9.216H3.669l1.383-15.843,1.428-3.332.967-2.258Z" transform="translate(-0.348 -66.84)" fill="#05264e"/>
      <path id="Path_2721" data-name="Path 2721" d="M20,81.744l-7.185-.433-2.395,3.031A14.068,14.068,0,0,0,5.19,86.29c.308,9.077-.369,20.88,2.395,23.165L5.131,126.681a3.322,3.322,0,0,1,2.643-.545c.571.1,1.261,1.382,1.963,1.46,5.393.6,14.138-.017,18.473-8.925l-1.682-12.9.435-18.835a11.808,11.808,0,0,0-5.008-2.165L20,81.744Z" transform="translate(-0.487 -62.926)" fill="#2cb0dd"/>
      <path id="Path_2722" data-name="Path 2722" d="M36.414,75.663a4.292,4.292,0,0,1-.249,2.022l1.2,7.1-3.416.467L33.1,78a4.3,4.3,0,0,1-.659-1.929c-.178-1.715.567-3.2,1.664-3.309s2.131,1.186,2.309,2.9Z" transform="translate(-3.074 -62.115)" fill="#ffb6b6"/>
      <path id="Path_2723" data-name="Path 2723" d="M24.249,87.348a3.851,3.851,0,0,0-.343,1.823c-.363,3.009,5.435,11.9,9.447,12.923.526.134.826.7,1.358.812h0a2.44,2.44,0,0,0,2.955-2.5l-1.09-20.5L32,81.451,32.29,92.1c-.029-2.205-2.066-4.451-3.608-5.385,0,0-3.125-1.282-4.433.637Z" transform="translate(-2.265 -62.792)" fill="#2cb0dd"/>
      <path id="Path_2724" data-name="Path 2724" d="M17.744,79.373a6.293,6.293,0,1,0-6.329-6.293A6.311,6.311,0,0,0,17.744,79.373Z" transform="translate(-1.083 -61.549)" fill="#ffb6b6"/>
      <path id="Path_2725" data-name="Path 2725" d="M23.5,68.193a11.818,11.818,0,0,1,.871-.866c.871-.433-.024,3.8-.653,3.68-1.548-.292-2.216-.872-2.817.576a2.906,2.906,0,0,1-.6,1.145c-.449.392-1.193.359-1.559.827a1.293,1.293,0,0,0,.009,1.355c.218.427.549.788.747,1.223.222.489-.725,2.046-1.086,2.921v0l0,.005c-.1.229-.324-.431-.565-.5-.288-.079-.713.6-1.172.475l-.007,0c-.438-.121-.925-.251-1.409-.381h0c-1.361-.368-1.7.16-1.77.145l-.845-.879c-.29-.21-.257-.888-.462-1.07-.167-.149-.584.2-.707.052a6.208,6.208,0,0,1-1.1-2.789c-.324-1.267-1-5.057.385-5.229,1.3-.162.35-1.968,1.663-1.9a1.027,1.027,0,0,1,.3-.924,2.465,2.465,0,0,1,.864-.526c1.557-.632,1.3-1.176,2.939-.808a7.246,7.246,0,0,1,2.553-.744c.022,0-.457.928.713.744-.044.266.594-.311.653.65,1.247-.744,1.918,1.037,1.959,1.3.054.327-.442.16-.111.21.2.03.531.427.5.623.141-.191.283-.379.427-.569.026,0,.05.007.076.011.662.126-.1,2.277-.07,1.606.05-1.232.927-.511.268-.366Z" transform="translate(-0.941 -61.282)" fill="#2f2e41"/>
      <path id="Path_2726" data-name="Path 2726" d="M113.573,67.146q-.35,2.867-.767,5.725a8.783,8.783,0,0,1-.544,2.275,8.954,8.954,0,0,1-.811,1.381A7.168,7.168,0,0,1,110.264,78a2.43,2.43,0,0,1-1.731.657,6.875,6.875,0,0,0,2.984-5.026,25.538,25.538,0,0,0-.053-2.833,5.647,5.647,0,0,1,.5-2.762,2.613,2.613,0,0,1,2.255-1.486l-.642.6Z" transform="translate(-10.292 -61.526)" fill="#2f2e41"/>
      <path id="Path_2727" data-name="Path 2727" d="M94.89,111.336c-1.365,1.1-3.043,1.293-3.748.43s-.169-2.458,1.2-3.558A4.4,4.4,0,0,1,94.2,107.3l5.844-4.593,2.109,2.773-5.984,4.234a4.378,4.378,0,0,1-1.281,1.626Z" transform="translate(-8.614 -64.955)" fill="#a0616a"/>
      <path id="Path_2728" data-name="Path 2728" d="M96.535,103.9l8.707-8.216.871-.65s5-4.842,6.293-4.953a2.484,2.484,0,0,1,1.559.387,2.455,2.455,0,0,1,.31,3.9l-7.972,7.116-3.392,3.027-4.217,3.766-.429-.869-1.45-2.943-.28-.568h0Z" transform="translate(-9.155 -63.757)" fill="#2cb0dd"/>
      <path id="Path_2729" data-name="Path 2729" d="M116.191,99.208l-8.719,2.655c1.46.409,2.071,9.253.712,9.528,0,0,14.449,1.022,13.661,0-.961-1.246.328-9.524.942-9.528Z" transform="translate(-10.192 -64.623)" fill="#a0616a"/>
      <path id="Path_2730" data-name="Path 2730" d="M127.191,145.438l-.762-9.145a68.812,68.812,0,0,0-.555-8.862c-1.369-10.576-4.8-16-4.8-16H108.225c-.017.02-.034.034-.052.054l0,0c-3.03,3.168-4.606,11.133-5.308,15.941-.333,2.288-.468,3.862-.468,3.862l-1.256,11.1.908,3.041h7.475l-.118-.652,4.809-17.355.059-.212.052.212,4.459,18.006Z" transform="translate(-9.591 -65.783)" fill="#05264e"/>
      <path id="Path_2731" data-name="Path 2731" d="M108.965,92.2l2.715-5.449,2.287-3.959,1.849-1.874h5.062l.472,1.874,2.827,1.562,1,7.81-3.563,16.945c-4.241-3.437-12.982-4.388-12.982-4.388l-1.417-4.1-.936-4.937-.113-.59,2.8-2.895Z" transform="translate(-10.068 -62.889)" fill="#2cb0dd"/>
      <path id="Path_2732" data-name="Path 2732" d="M108.571,103.847c-1.757-.049-3.155-.991-3.124-2.1s1.482-1.973,3.239-1.923a4.42,4.42,0,0,1,2.012.518l7.442.3-.217,3.47-7.314-.667a4.429,4.429,0,0,1-2.038.4Z" transform="translate(-10 -64.681)" fill="#a0616a"/>
      <path id="Path_2733" data-name="Path 2733" d="M118.571,90.625l7.02,6.931L113.362,98.8l-2.842,3.975,17.045.562a2.479,2.479,0,0,0,3.3-2.131h0c.043-.547-3.46-14.413-5.579-15.7-2.485-1.509-6.718,5.118-6.718,5.118l1.387-2.3Z" transform="translate(-10.481 -63.303)" fill="#2cb0dd"/>
      <path id="Path_2734" data-name="Path 2734" d="M123.6,72.8a5.734,5.734,0,1,0-5.826,5.608A5.717,5.717,0,0,0,123.6,72.8Z" transform="translate(-10.634 -61.569)" fill="#a0616a"/>
      <path id="Path_2735" data-name="Path 2735" d="M130.463,90.2c-.144.541-1.263.821-1.524,1.516-.831.472-.38-3.384-.716-3.637-.259-.193-.329.273-.387-.128-.222-1.5-1.675-1.167-2.75-1.409a3.514,3.514,0,0,1-.276-.688.537.537,0,0,0-.9-.247,2.425,2.425,0,0,1-.322-.944,5.553,5.553,0,0,0-.214-.792l-.749-1.68.242,1.251c-.49-.175-.984.007-1.269-.6a3.417,3.417,0,0,1-.246-2.49c.242-.736.649-2.211,1.108-3.432a4.638,4.638,0,0,1-1.87.784,5.723,5.723,0,0,0,.627-1.518,1.92,1.92,0,0,0-.3-1.567c-.282-.353-.7-.264-1.054-.548a4,4,0,0,1-.677-1.1c.706,2.332,1.239,4.809.342,7.034a6.035,6.035,0,0,1-3.495,3.364,10.442,10.442,0,0,0,2.273-2.031,4.237,4.237,0,0,0,.971-3.037c-.209-1.7-3.379-7.075-3.768-8.132.213,1.033.13,1.838-.432,2.282-.146-1.5-1.787-1.362-2.682-1.961,0,0-.692-3.891.932-3.914.783-.011,1.6-1.842,2.316-2.169,1.136-.522,1.833-.167,3.094-.128a4.221,4.221,0,0,1,3.235,1.565c.4.517.551.106,1.156.429.575.305.962.022,1.614.041a4.2,4.2,0,0,1,3.3,1.8c.731,1.074,1.182.974.892,2.635a.472.472,0,0,0,0,.117,16.653,16.653,0,0,1-1.291,7.645c-.322.74,1.254,1.5,1.252,2.429,0,1.074-1.742,2.052-1.58,2.511.462,2.21,3.054,1.719,2.442,5.419C129.706,89.173,130.559,89.833,130.463,90.2Z" transform="translate(-10.645 -61.297)" fill="#2f2e41"/>
      <path id="Path_2736" data-name="Path 2736" d="M114.821,85.442q.072-.023.144-.052l-.181.128.037-.076Z" transform="translate(-10.885 -63.313)" fill="#2f2e41"/>
      <path id="Path_2737" data-name="Path 2737" d="M123.642,65.048c-.624.092-1.257-.937-.9-2.364a7.637,7.637,0,0,1,1.228,3.945l-.416.128Z" transform="translate(-11.63 -61.16)" fill="#6abaa2"/>
      <path id="Path_2738" data-name="Path 2738" d="M126.923,63.824c-.425,1.5-2.587,2.5-2.969,1.981l-.043.894-.267-.342a6.414,6.414,0,0,1,3.279-2.534Z" transform="translate(-11.725 -61.268)" fill="#6abaa2"/>
      <path id="Path_2739" data-name="Path 2739" d="M74.835,108.405a.907.907,0,0,1,.909-.9H90.349a.9.9,0,1,1,0,1.807H75.743A.907.907,0,0,1,74.835,108.405Z" transform="translate(-7.097 -65.41)" fill="#e6e7e8"/>
      <path id="Path_2740" data-name="Path 2740" d="M74.835,115.1a.907.907,0,0,1,.909-.9H90.349a.9.9,0,1,1,0,1.808H75.743A.907.907,0,0,1,74.835,115.1Z" transform="translate(-7.097 -66.045)" fill="#e6e7e8"/>
      <path id="Path_2741" data-name="Path 2741" d="M63.151,112.688a.9.9,0,1,1,0-1.807h26a.9.9,0,1,1,0,1.807Z" transform="translate(-5.903 -65.73)" fill="#e6e7e8"/>
      <path id="Path_2742" data-name="Path 2742" d="M60.922,102.257l-1.792-.845a13.058,13.058,0,0,1,1.707,3.88,13.061,13.061,0,0,1,2.415-3.489l-1.894.484c1.167-5.687,5.556-9.769,10.582-9.769v-.433C66.692,92.087,62.114,96.34,60.922,102.257Z" transform="translate(-5.607 -63.948)" fill="#3f3d56"/>
      <path id="Path_2743" data-name="Path 2743" d="M68.944,112.714H57.622a.866.866,0,1,1,0-1.732H68.944a.866.866,0,1,1,0,1.732Z" transform="translate(-5.382 -65.74)" fill="#2cb0dd"/>
      <path id="Path_2744" data-name="Path 2744" d="M73.165,92.917a3.409,3.409,0,1,0-3.911,2.8A3.392,3.392,0,0,0,73.165,92.917Z" transform="translate(-6.296 -63.654)" fill="#3f3d56"/>
      <path id="Path_2745" data-name="Path 2745" d="M49.491,65.182a2.091,2.091,0,1,0-2.1-2.091A2.1,2.1,0,0,0,49.491,65.182Z" transform="translate(-4.494 -61)" fill="#e6e7e8"/>
      <path id="Path_2746" data-name="Path 2746" d="M76.671,105.125a2.091,2.091,0,1,0-2.1-2.091A2.1,2.1,0,0,0,76.671,105.125Z" transform="translate(-7.072 -64.788)" fill="#e6e7e8"/>
    </g>
    <path id="Path_2747" data-name="Path 2747" d="M199.127,4.023c.214-.841-.6-1.771-1.81-2.077s-2.371.127-2.584.968.6,1.771,1.81,2.077S198.913,4.864,199.127,4.023Z" transform="translate(-18.464 -0.116)" fill="#3f3d56"/>
    <path id="Path_2748" data-name="Path 2748" d="M218.572,17.657c.214-.841-.6-1.771-1.81-2.077s-2.371.127-2.584.968.6,1.771,1.809,2.077S218.357,18.5,218.572,17.657Z" transform="translate(-20.308 -1.409)" fill="#2cb0dd"/>
    <path id="Path_2749" data-name="Path 2749" d="M222.643,22.825c.088-.783-.284-1.467-.831-1.528s-1.062.525-1.15,1.308.284,1.467.831,1.528S222.555,23.608,222.643,22.825Z" transform="translate(-20.925 -1.96)" fill="#e6e6e6"/>
    <path id="Path_2750" data-name="Path 2750" d="M223.992,33.041c.088-.783-.284-1.467-.832-1.528s-1.061.525-1.15,1.308.285,1.467.832,1.528S223.9,33.824,223.992,33.041Z" transform="translate(-21.053 -2.929)" fill="#3f3d56"/>
    <path id="Path_2751" data-name="Path 2751" d="M207.251,13.57c.088-.783-.284-1.467-.831-1.528s-1.062.525-1.15,1.308.284,1.467.831,1.528S207.163,14.354,207.251,13.57Z" transform="translate(-19.465 -1.082)" fill="#e6e6e6"/>
    <path id="Path_2752" data-name="Path 2752" d="M215.491,10.488c.088-.783-.284-1.467-.832-1.528s-1.062.525-1.15,1.308.284,1.467.832,1.528S215.4,11.271,215.491,10.488Z" transform="translate(-20.246 -0.79)" fill="#2cb0dd"/>
    <path id="Path_2753" data-name="Path 2753" d="M205.34,2.159c.088-.783-.284-1.467-.831-1.528s-1.062.525-1.15,1.308.284,1.467.831,1.528S205.252,2.942,205.34,2.159Z" transform="translate(-19.284 0)" fill="#3f3d56"/>
    <path id="Path_2754" data-name="Path 2754" d="M182.054,107.531a16.238,16.238,0,0,1-10.529-3.872,15.076,15.076,0,0,1-3.1-4.311,9.824,9.824,0,0,1-.314-8.513,11.33,11.33,0,0,1-1.876,1.533l-.343.227-.02-.41c-.013-.266-.019-.532-.019-.789,0-1.516,1.151-3.054.62-4.456-2.238-5.906-9.336-11.775.951-20.915.951-.846-.32-2.536-.32-3.815,0-12.537,17.792-34.227,22.834-22.737,6.219,14.17,16.933,12.654,21.68,15.581l.069.207-.2.082a12.286,12.286,0,0,1-3.251.861,15.561,15.561,0,0,0,3.625.3l.188-.007.046.183a22.758,22.758,0,0,1,.681,5.527v.2a10.058,10.058,0,0,0,3.34,7.509,16.141,16.141,0,0,1,5.3,11.934c0,2.658-1.813,6.147-3.336,8.605a4.887,4.887,0,0,1-3.586,2.288,4.783,4.783,0,0,1-3.851-1.239,15.685,15.685,0,0,0,2.783,3.924l.207.214-.258.149a16.242,16.242,0,0,1-8.161,2.2h-.167A15.843,15.843,0,0,0,193.7,102.6a16.353,16.353,0,0,1-11.649,4.933Z" transform="translate(-15.363 -3.376)" fill="#fcfcfc"/>
    <path id="Path_2755" data-name="Path 2755" d="M177.9,137a.293.293,0,0,1-.191-.072.289.289,0,0,1-.1-.178,96.744,96.744,0,0,1-.136-20.371c1.006-10.689,4.235-26.086,13.91-38.732a.3.3,0,0,1,.085-.075.3.3,0,0,1,.108-.037.291.291,0,0,1,.113.007.3.3,0,0,1,.1.05.283.283,0,0,1,.075.085.3.3,0,0,1,.037.107.28.28,0,0,1-.007.113.287.287,0,0,1-.05.1c-9.591,12.536-12.795,27.82-13.793,38.434a96.129,96.129,0,0,0,.132,20.235.284.284,0,0,1-.009.123.275.275,0,0,1-.06.108.284.284,0,0,1-.1.074A.3.3,0,0,1,177.9,137Z" transform="translate(-16.786 -7.294)" fill="#3f3d56"/>
    <path id="Path_2756" data-name="Path 2756" d="M186.688,96.611a.29.29,0,0,1-.171-.525,40.2,40.2,0,0,1,8.865-4.495c4.892-1.783,12.329-3.4,19.987-.973a.3.3,0,0,1,.1.055.289.289,0,0,1,.071.089.3.3,0,0,1,.032.109.288.288,0,0,1-.068.212.283.283,0,0,1-.089.071.293.293,0,0,1-.11.031.289.289,0,0,1-.112-.013c-7.5-2.377-14.8-.787-19.61.965a39.553,39.553,0,0,0-8.724,4.419A.292.292,0,0,1,186.688,96.611Z" transform="translate(-17.677 -8.418)" fill="#3f3d56"/>
    <path id="Path_2757" data-name="Path 2757" d="M171.987,60.791a.288.288,0,0,1,.043-.174.292.292,0,0,1,.471-.034,39.961,39.961,0,0,1,5.14,8.483c2.138,4.73,4.293,12,2.414,19.783a.292.292,0,0,1-.048.1.281.281,0,0,1-.083.077.29.29,0,0,1-.107.039.3.3,0,0,1-.114,0,.291.291,0,0,1-.18-.131.293.293,0,0,1-.034-.22c1.84-7.622-.278-14.762-2.379-19.409a39.334,39.334,0,0,0-5.054-8.347A.282.282,0,0,1,171.987,60.791Z" transform="translate(-16.31 -5.676)" fill="#3f3d56"/>
  </g>
</svg>
