<svg xmlns="http://www.w3.org/2000/svg" width="33" height="33" viewBox="0 0 33 33">
  <g id="Group_380" data-name="Group 380" transform="translate(-911 -613)">
    <circle id="Ellipse_254" data-name="Ellipse 254" cx="16.5" cy="16.5" r="16.5" transform="translate(944 646) rotate(180)" fill="#f5f5f5"/>
    <path id="edit-63" d="M115.642,128a1.012,1.012,0,0,0,.15-.013L120,127.25a.245.245,0,0,0,.132-.07l10.6-10.6a.249.249,0,0,0,0-.353l-4.155-4.158a.254.254,0,0,0-.355,0l-10.6,10.6a.254.254,0,0,0-.07.132l-.737,4.205a.838.838,0,0,0,.235.745A.847.847,0,0,0,115.642,128Zm1.685-4.36,9.067-9.065,1.832,1.832-9.067,9.065-2.222.393ZM131.2,130.1H112.8a.8.8,0,0,0-.8.8v.9a.2.2,0,0,0,.2.2h19.6a.2.2,0,0,0,.2-.2v-.9A.8.8,0,0,0,131.2,130.1Z" transform="translate(805 508)" fill="#05264e"/>
  </g>
</svg>
