<svg xmlns="http://www.w3.org/2000/svg" width="126" height="126" viewBox="0 0 126 126">
  <g id="Group_360" data-name="Group 360" transform="translate(-959 -134)">
    <circle id="Ellipse_235" data-name="Ellipse 235" cx="63" cy="63" r="63" transform="translate(959 134)" fill="#fff"/>
    <circle id="Ellipse_233" data-name="Ellipse 233" cx="54" cy="54" r="54" transform="translate(968 143)" fill="rgba(59,182,65,0.34)"/>
    <g id="email-verification-icon_1_" data-name="email-verification-icon (1)" transform="translate(992.062 165.802)">
      <path id="Path_3348" data-name="Path 3348" d="M56.089,21.11a1.823,1.823,0,0,1,1.234-.472,2.031,2.031,0,0,1,1.046.3,2.585,2.585,0,0,1,.64.543,3.585,3.585,0,0,1,.858,2.163V59.522a2.9,2.9,0,0,1-.843,2.031h0a2.879,2.879,0,0,1-2.031.843H2.884a2.9,2.9,0,0,1-2.031-.843h0A2.854,2.854,0,0,1,.01,59.522V23.65a3.606,3.606,0,0,1,.879-2.194,2.793,2.793,0,0,1,.64-.508,2.031,2.031,0,0,1,1.016-.295,1.823,1.823,0,0,1,1.016.289V1.391A1.391,1.391,0,0,1,4.931,0H40.072a1.376,1.376,0,0,1,1.066.508L55.688,15.534a1.376,1.376,0,0,1,.4.965h0v4.616Z" transform="translate(0)" fill="#00a912"/>
      <path id="Path_3349" data-name="Path 3349" d="M94.775,78.925V47.12L76.6,63,94.775,78.925Z" transform="translate(-37.696 -23.191)" fill="#fff"/>
      <path id="Path_3350" data-name="Path 3350" d="M23.416,63.167,5.49,47.15V78.879L23.416,63.167Z" transform="translate(-2.697 -23.206)" fill="#fff"/>
      <path id="Path_3351" data-name="Path 3351" d="M31.4,87.454l-5.9-5.271L5.484,99.723v.157a.086.086,0,0,0,0,.066h0a.112.112,0,0,0,.066,0H59.679a.112.112,0,0,0,.066,0h0a.086.086,0,0,0,0-.066v-.107L39.488,82l-6.246,5.464h0a1.386,1.386,0,0,1-1.838,0Z" transform="translate(-2.691 -40.358)" fill="#fff"/>
      <path id="Path_3352" data-name="Path 3352" d="M58.078,18.374,45.733,5.617V5.49H12.44V26.062h0L29.818,41.6l.076.071,5.865,5.241L59.444,26.245V21.167L58.1,18.379Z" transform="translate(-6.118 -2.702)" fill="#fff"/>
      <path id="Path_3353" data-name="Path 3353" d="M46.268,13.35A12.828,12.828,0,1,1,33.44,26.178,12.828,12.828,0,0,1,46.268,13.35Z" transform="translate(-16.453 -6.571)" fill="#00a912" fill-rule="evenodd"/>
      <path id="Path_3354" data-name="Path 3354" d="M47.808,30.88l2.27,2.143,5.373-5.444c.447-.452.726-.813,1.275-.249l1.782,1.823c.584.579.554.919,0,1.457L51.1,37.9c-1.163,1.143-.96,1.214-2.143.041l-4.124-4.124a.508.508,0,0,1,.051-.8l2.067-2.143c.315-.33.564-.3.884,0Z" transform="translate(-21.975 -13.309)" fill="#fff" fill-rule="evenodd"/>
    </g>
  </g>
</svg>
