<svg xmlns="http://www.w3.org/2000/svg" width="19.755" height="19.756" viewBox="0 0 19.755 19.756">
  <g id="share" transform="translate(-0.005 0)">
    <path id="Path_3288" data-name="Path 3288" d="M.005,9.866a3.822,3.822,0,0,0,6.428,2.812l5.7,2.572a3.892,3.892,0,0,0-.065.645,3.848,3.848,0,1,0,.68-2.172L7.392,11.307a3.761,3.761,0,0,0,0-2.868L12.74,6.011a3.831,3.831,0,1,0-.68-2.173,3.8,3.8,0,0,0,.066.646L6.445,7.065a3.823,3.823,0,0,0-6.44,2.8Z" transform="translate(0 0)" fill="#05264e"/>
  </g>
</svg>
