<svg xmlns="http://www.w3.org/2000/svg" width="14.919" height="14.919" viewBox="0 0 14.919 14.919">
  <g id="sign-in-alt" transform="translate(0.25 0.25)">
    <path id="Path_2" data-name="Path 2" d="M11.168,0H3.251A3.227,3.227,0,0,0,0,3.195v1.12a.9.9,0,0,0,1.8,0V3.195A1.423,1.423,0,0,1,3.251,1.8h7.917a1.423,1.423,0,0,1,1.448,1.393v8.029a1.423,1.423,0,0,1-1.448,1.393H3.251A1.423,1.423,0,0,1,1.8,11.224V10.1a.9.9,0,1,0-1.8,0v1.12a3.227,3.227,0,0,0,3.251,3.195h7.917a3.227,3.227,0,0,0,3.251-3.195V3.195A3.227,3.227,0,0,0,11.168,0Z" transform="translate(0 0)" fill="#fff" stroke="#fff" stroke-width="0.5"/>
    <path id="Path_3" data-name="Path 3" d="M3.5,9.006a.9.9,0,0,0,.9.9h0l5.993-.016L8.312,11.973a.9.9,0,0,0,1.274,1.275l2.755-2.755a2.1,2.1,0,0,0,0-2.974L9.588,4.764A.9.9,0,1,0,8.314,6.039l2.05,2.05L4.4,8.1A.9.9,0,0,0,3.5,9.006Z" transform="translate(-1.397 -1.796)" fill="#fff" stroke="#fff" stroke-width="0.5"/>
  </g>
</svg>
